<?xml version="1.0" encoding="UTF-8"?>
<!DOCTYPE svg PUBLIC "-//W3C//DTD SVG 1.1//EN" "http://www.w3.org/Graphics/SVG/1.1/DTD/svg11.dtd">
<!-- Creator: CorelDRAW 2020 (64-Bit) -->
<svg xmlns="http://www.w3.org/2000/svg" xml:space="preserve" width="292.709mm" height="146.355mm" version="1.1" style="shape-rendering:geometricPrecision; text-rendering:geometricPrecision; image-rendering:optimizeQuality; fill-rule:evenodd; clip-rule:evenodd"
viewBox="0 0 29270.9 14635.45"
 xmlns:xlink="http://www.w3.org/1999/xlink"
 xmlns:xodm="http://www.corel.com/coreldraw/odm/2003">
 <defs>
  <style type="text/css">
   <![CDATA[
    .fil1 {fill:black;fill-rule:nonzero}
    .fil0 {fill:white;fill-rule:nonzero}
   ]]>
  </style>
 </defs>
 <g id="Слой_x0020_1">
  <metadata id="CorelCorpID_0Corel-Layer"/>
  <polygon class="fil0" points="-0,0 -0,1463.54 -0,7317.72 -0,8781.27 1463.55,8781.27 5854.19,8781.27 5854.19,13171.9 5854.19,14635.45 7317.73,14635.45 21953.19,14635.45 23416.73,14635.45 23416.73,13171.9 23416.73,8781.27 27807.36,8781.27 29270.9,8781.27 29270.9,0 "/>
  <polygon class="fil1" points="9357.84,5698.22 9357.84,3089.54 10730.35,3089.54 10730.35,5698.22 10299.48,5698.22 10299.48,3484.05 9788.65,3484.05 9788.65,5698.22 "/>
  <path class="fil1" d="M11962.61 5338.05c1.22,0 2.39,0.29 3.63,0.87 1.22,0.53 2.45,0.82 3.63,0.82 50.93,-1.11 91.5,-11.41 121.82,-30.85 30.27,-19.43 53.62,-44.9 69.96,-76.34 16.39,-31.43 26.93,-67.73 31.79,-108.88 4.86,-41.16 7.32,-83.49 7.32,-126.92l0 -1207.43c0,-42.32 -2.17,-84.06 -6.39,-125.22 -4.21,-41.15 -14.52,-77.74 -30.85,-109.77 -16.39,-32.02 -40.04,-57.72 -70.89,-77.15 -30.97,-19.44 -73.65,-29.16 -128.21,-29.16 -3.63,0 -6.67,-0.58 -9.07,-1.7 -50.88,1.12 -91.5,11.42 -121.83,30.86 -30.32,19.43 -53.33,44.84 -69.08,76.34 -15.74,31.43 -26.05,67.73 -30.85,108.88 -4.86,41.16 -7.32,83.49 -7.32,126.92l0 1207.43c0,42.32 2.11,84 6.38,125.22 4.28,41.15 14.52,77.74 30.91,109.77 16.33,31.96 39.99,57.72 70.9,77.15 30.91,19.44 73.58,29.16 128.15,29.16zm0 -2282.78c0,-1.17 0.64,-1.7 1.81,-1.7 135.76,0 246.93,19.67 333.57,59.13 86.64,39.45 154.55,92.61 203.61,159.52 49.12,66.86 83.01,144.89 101.81,234.11 18.79,89.16 28.21,182.95 28.21,281.3l0 1210.81c0,99.47 -9.42,193.84 -28.21,283 -18.8,89.21 -53.04,167.25 -102.75,234.11 -49.64,66.91 -117.84,119.77 -204.48,158.64 -86.64,38.82 -197.23,58.31 -331.76,58.31l-1.81 -1.7 0 1.7c-135.7,0 -246.93,-19.73 -333.58,-59.12 -86.7,-39.46 -154.84,-92.62 -204.48,-159.53 -49.7,-66.92 -83.95,-144.95 -102.74,-234.11 -18.8,-89.22 -28.16,-182.94 -28.16,-281.3l0 -1210.81c0,-99.53 9.36,-193.54 28.16,-282.18 18.79,-88.57 53.33,-166.37 103.61,-233.23 50.29,-66.91 118.79,-120.07 205.43,-159.52 86.64,-39.46 197.23,-59.13 331.76,-59.13l0 1.7z"/>
  <path class="fil1" d="M14123.85 4773.78c0,-35.42 -5.15,-68.61 -15.45,-99.46 -10.25,-30.91 -25.41,-57.78 -45.43,-80.61 -20.02,-22.9 -45.43,-40.87 -76.34,-54.04 -30.91,-13.17 -66.97,-19.73 -108.13,-19.73l-230.94 0 0 783.82 232.7 0c39.98,0 75.17,-3.75 105.49,-11.18 30.21,-7.44 56.03,-21.14 77.22,-41.16 21.19,-20.02 36.94,-47.42 47.3,-82.31 10.25,-34.89 14.81,-79.73 13.58,-134.64l0 -260.69zm-30.85 -1058.2c0,-37.76 -4.33,-72.07 -12.76,-102.92 -8.49,-30.85 -21.78,-57.43 -39.99,-79.73 -18.14,-22.31 -41.85,-39.46 -70.89,-51.46 -29.09,-12 -64.86,-18.03 -107.31,-18.03l-214.49 0 0 686.05 183.64 0c49.71,0 91.45,-5.45 125.46,-16.28 33.89,-10.89 61.47,-27.75 82.72,-50.63 21.13,-22.84 36,-51.46 44.49,-85.71 8.49,-34.3 12.06,-75.52 10.95,-123.52l-1.82 -157.77zm461.66 1312.04c0,120.07 -13.58,222.4 -40.86,306.99 -27.28,84.59 -68.79,153.79 -124.52,207.53 -55.79,53.74 -125.4,92.91 -209.05,117.49 -83.66,24.59 -182.42,36.89 -296.34,36.89l-667.14 0 0 -2606.99 658.07 0c111.46,0 208.17,13.46 289.95,40.33 81.85,26.88 149.34,65.75 202.68,116.62 53.33,50.87 93.02,112.93 119.07,186.11 26.11,73.17 39.1,156.66 39.1,250.38l0 152.68c0,136.05 -20.02,244.11 -60,324.14 -39.98,80.03 -105.43,132.6 -196.35,157.77 88.46,22.89 158.24,74.06 209.11,153.5 50.87,79.5 76.28,180.37 76.28,302.72l0 253.84z"/>
  <polygon class="fil1" points="15137.97,5698.22 15137.97,3089.54 16306.88,3089.54 16306.88,3484.05 15568.79,3484.05 15568.79,4173.5 16181.43,4173.5 16181.43,4567.95 15568.79,4567.95 15568.79,5305.46 16306.88,5305.46 16306.88,5698.22 "/>
  <path class="fil1" d="M17724.55 3727.57c0,-80.02 -17.6,-140.61 -52.67,-181.77 -35.17,-41.21 -97.01,-61.76 -185.42,-61.76l-205.46 0 0 924.43 189.02 0c93.31,0 159.1,-20.02 197.24,-60.06 38.2,-39.99 57.29,-107.43 57.29,-202.38l0 -418.46zm432.68 418.46c0,125.8 -15.8,230.71 -47.27,314.72 -31.5,84.07 -76.69,151.21 -135.43,201.56 -58.77,50.29 -130.32,85.76 -214.56,106.31 -84.24,20.61 -179,30.91 -284.45,30.91l-194.52 0 0 898.68 -430.88 0 0 -2608.63 634.47 0c101.81,0 193.89,10.83 276.33,32.55 82.38,21.72 152.97,57.49 211.74,107.19 58.77,49.76 104.28,115.21 136.35,196.41 32.14,81.14 48.22,181.77 48.22,301.84l0 418.46z"/>
  <polygon class="fil1" points="18655.18,5698.22 18655.18,3089.54 19087.86,3089.54 19087.86,4185.5 19598.65,4185.5 19598.65,3089.54 20029.49,3089.54 20029.49,5698.22 19598.65,5698.22 19598.65,4579.95 19087.86,4579.95 19087.86,5698.22 "/>
  <polygon class="fil1" points="21698.1,5698.22 21714.43,3983.12 21179.94,5698.22 20676.49,5698.22 20681.92,3089.54 21112.73,3089.54 21098.2,4763.48 21590.85,3089.54 22130.78,3089.54 22130.78,5698.22 "/>
  <path class="fil1" d="M23977.47 4871.54l0 154.38c0,92.61 -9.74,181.48 -29.11,266.66 -19.37,85.17 -53.9,160.11 -103.61,224.68 -49.67,64.63 -117.51,116.38 -203.55,155.25 -86.11,38.82 -195.76,58.31 -329.07,58.31 -1.24,0 -1.84,0.59 -1.84,1.7 -136.91,0 -248.78,-19.73 -335.38,-59.19 -86.65,-39.46 -154.52,-92.61 -203.59,-159.46 -49.07,-66.92 -83.01,-144.95 -101.81,-234.11 -18.81,-89.22 -28.15,-182.95 -28.15,-281.3l0 -1210.88c0,-99.46 9.34,-193.48 28.15,-282.11 18.8,-88.63 52.74,-166.38 101.81,-233.23 49.07,-66.91 116.94,-120.07 203.59,-159.53 86.6,-39.46 197.23,-59.18 331.78,-59.18l1.8 -1.7c135.75,0 246.95,19.73 333.59,59.19 86.64,39.45 154.76,92.02 204.54,157.77 49.64,65.74 83.82,141.49 102.66,227.25 18.8,85.77 28.19,174.93 28.19,267.54l0 149.23 -432.69 0 0 -147.47c0,-38.93 -2.71,-77.22 -8.15,-114.92 -5.43,-37.76 -16.4,-71.77 -32.73,-102.1 -16.34,-30.26 -39.97,-54.85 -70.88,-73.7 -30.9,-18.91 -71.79,-28.33 -122.73,-28.33 -53.37,0 -95.39,9.71 -126.33,29.15 -30.9,19.43 -54.85,44.9 -71.75,76.34 -17.04,31.43 -27.94,67.73 -32.78,108.88 -4.86,41.22 -7.26,84.07 -7.26,128.68l0 1207.42c0,42.27 2.11,84.01 6.38,125.17 4.2,41.15 14.57,77.74 30.91,109.76 16.33,32.03 39.93,57.79 70.9,77.22 30.91,19.43 73.63,29.15 128.13,29.15 49.71,0 90,-8.6 120.9,-25.75 30.9,-17.16 54.79,-40.28 71.76,-69.44 17,-29.15 28.5,-62.64 34.53,-100.34 6.11,-37.76 9.1,-77.15 9.1,-118.37l0 -152.62 432.69 0z"/>
  <path class="fil1" d="M25326.14 4641.72c0,-94.89 -19.09,-162.34 -57.3,-202.38 -38.13,-40.04 -103.92,-60 -197.23,-60l-189.02 0 0 924.43 205.46 0c88.4,0 150.21,-20.61 185.42,-61.76 35.06,-41.16 52.67,-101.75 52.67,-181.83l0 -418.46zm432.68 418.46c0,120.07 -16.09,220.7 -48.23,301.9 -32.06,81.14 -77.57,146.65 -136.35,196.35 -58.77,49.76 -129.36,85.47 -211.73,107.19 -82.45,21.72 -174.52,32.6 -276.33,32.6l-634.47 0 0 -2608.68 430.88 0 0 898.74 194.52 0c105.44,0 200.2,10.3 284.44,30.85 84.25,20.61 155.79,56.02 214.56,106.37 58.74,50.29 103.93,117.44 135.4,201.5 31.5,84.07 47.31,188.97 47.31,314.72l0 418.46z"/>
  <path class="fil1" d="M4227.37 5761.53l-1115.69 -1479.41c-130.11,-172.54 -183.84,-380.69 -165.09,-582.18 18.8,-202.09 110.08,-397.12 269.85,-542.73 22.2,-20.23 45.7,-39.38 70.37,-57.43 172.15,-125.94 378.55,-176.83 577.67,-156.86 195.26,19.59 383.61,106.95 526.16,258.12 142.55,-151.17 330.9,-238.53 526.17,-258.13 199.13,-19.98 405.52,30.94 577.67,156.87 24.66,18.04 48.17,37.2 70.37,57.43 159.77,145.61 251.05,340.64 269.85,542.73 18.75,201.5 -34.97,409.64 -165.08,582.18l-1278.97 1695.93 -163.28 -216.52zm-789.13 -1725.93l952.41 1262.9 952.41 -1262.9c66.97,-88.81 94.66,-195.64 85.06,-298.84 -9.54,-102.6 -56.42,-202.12 -138.59,-277.01 -12.34,-11.25 -24.63,-21.33 -36.77,-30.21 -87.93,-64.32 -193.69,-90.3 -295.93,-80.05 -101.66,10.2 -199.84,56.67 -273.29,137.25 -10.94,12 -21.05,24.29 -30.19,36.79l-262.69 358.76 -262.72 -358.76c-9.13,-12.49 -19.24,-24.78 -30.19,-36.79 -73.45,-80.57 -171.63,-127.04 -273.29,-137.24 -102.24,-10.25 -208,15.71 -295.93,80.04 -12.14,8.88 -24.43,18.96 -36.77,30.21 -82.17,74.89 -129.05,174.41 -138.59,277.01 -9.6,103.18 18.09,210.02 85.07,298.84z"/>
  <path class="fil1" d="M1668.45 7112.83l5444.38 0 0 -5444.38 -5444.38 0 0 5444.38zm20489.64 0l5444.38 0 0 -5444.38 -20079.84 0 0 5444.38 14635.46 0zm5649.28 409.8l-5649.28 0 0 5854.19 -204.9 0 -14840.35 0 0 -5854.19 -0.01 0 -5854.18 0 0 -6263.98 5854.18 0 409.8 0 20489.64 0 0 6263.98 -204.9 0zm-20284.74 5444.39l14225.67 0 0 -5444.39 -14225.67 0 0 5444.39z"/>
  <polygon class="fil1" points="10239.48,11566.69 10239.48,10448.43 10063.15,10448.43 10065.02,10450.18 9639.6,11566.69 9179.64,11566.69 9686.9,10232.35 9214.24,8958.01 9675.96,8958.01 10077.67,10053.97 10239.48,10053.97 10239.48,8958.01 10670.29,8958.01 10670.29,10053.97 10830.34,10053.97 11233.87,8958.01 11693.77,8958.01 11219.29,10232.35 11730.13,11566.69 11268.41,11566.69 10843.04,10450.18 10843.04,10448.43 10670.29,10448.43 10670.29,11566.69 "/>
  <polygon class="fil1" points="13206.02,11566.69 13222.35,9851.59 12687.87,11566.69 12184.41,11566.69 12189.85,8958.01 12620.66,8958.01 12606.14,10631.96 13098.77,8958.01 13638.71,8958.01 13638.71,11566.69 "/>
  <path class="fil1" d="M15116.34 10642.26c0,-35.42 -5.15,-68.61 -15.46,-99.47 -10.24,-30.91 -25.41,-57.72 -45.43,-80.6 -20.02,-22.9 -45.43,-40.87 -76.33,-54.04 -30.91,-13.11 -66.98,-19.73 -108.13,-19.73l-230.95 0 0 783.82 232.7 0c39.99,0 75.17,-3.69 105.5,-11.18 30.2,-7.44 56.02,-21.14 77.21,-41.16 21.2,-19.96 36.94,-47.42 47.31,-82.31 10.24,-34.89 14.81,-79.73 13.58,-134.64l0 -260.69zm-30.85 -1058.2c0,-37.76 -4.34,-72.07 -12.77,-102.92 -8.48,-30.85 -21.77,-57.43 -39.98,-79.73 -18.15,-22.31 -41.86,-39.46 -70.89,-51.46 -29.1,-12 -64.87,-18.03 -107.31,-18.03l-214.5 0 0 686.05 183.65 0c49.7,0 91.44,-5.39 125.45,-16.28 33.9,-10.89 61.47,-27.75 82.72,-50.63 21.14,-22.84 36.01,-51.46 44.49,-85.71 8.49,-34.31 12.06,-75.52 10.95,-123.52l-1.81 -157.77zm461.66 1312.03c0,120.08 -13.59,222.41 -40.87,307 -27.28,84.65 -68.78,153.79 -124.51,207.53 -55.79,53.74 -125.4,92.91 -209.06,117.49 -83.65,24.59 -182.41,36.89 -296.34,36.89l-667.14 0 0 -2606.99 658.07 0c111.46,0 208.17,13.46 289.96,40.33 81.84,26.88 149.34,65.75 202.67,116.62 53.33,50.87 93.02,112.93 119.07,186.11 26.11,73.17 39.11,156.65 39.11,250.38l0 152.68c0,136.05 -20.02,244.11 -60.01,324.14 -39.98,80.03 -105.43,132.66 -196.34,157.77 88.45,22.89 158.23,74.06 209.11,153.5 50.87,79.5 76.28,180.37 76.28,302.72l0 253.83z"/>
  <polygon class="fil1" points="17081.37,11566.69 17097.7,9851.59 16563.21,11566.69 16059.76,11566.69 16065.22,8958.01 16496,8958.01 16481.5,10631.96 16974.12,8958.01 17514.05,8958.01 17514.05,11566.69 "/>
  <polygon class="fil1" points="18473.57,9657.8 18517.21,11566.67 18086.39,11566.67 18086.39,8958.05 18644.45,8958.05 19007.99,10542.77 19373.43,8958.05 19929.69,8958.05 19929.69,11566.67 19497.01,11566.67 19540.69,9683.5 19195.28,11240.83 18822.61,11240.83 "/>
 </g>
</svg>
