<svg width="107" height="56" viewBox="0 0 107 56" fill="none" xmlns="http://www.w3.org/2000/svg">
<path d="M31.9304 25.625C30.6435 25.625 29.7031 26.6143 29.7031 27.9004C29.7031 29.1865 30.6435 30.1758 31.9304 30.2253C33.2173 30.2253 34.1577 29.236 34.1577 27.9004C34.1082 26.5648 33.1678 25.625 31.9304 25.625Z" fill="#00B964"/>
<path d="M48.907 25.625C47.6696 25.625 46.6797 26.6143 46.6797 27.851C46.6797 29.1371 47.6696 30.1758 48.907 30.1758C50.1443 30.1758 51.0847 29.1865 51.0847 27.9004C51.1342 26.6638 50.1443 25.6745 48.907 25.625Z" fill="#00B964"/>
<path d="M21.239 25.625C20.0016 25.625 19.0612 26.6143 19.0117 27.851C19.0117 29.1371 19.9521 30.1758 21.1895 30.1758C22.4269 30.1758 23.4168 29.1865 23.4168 27.9004C23.4168 26.6638 22.4764 25.6745 21.239 25.625Z" fill="#00B964"/>
<path d="M10.3496 25.625C9.06278 25.625 8.17188 26.6143 8.17188 27.9004C8.17188 29.236 9.11228 30.2253 10.3991 30.2253C11.686 30.2253 12.6264 29.236 12.6264 27.9004C12.5769 26.5648 11.587 25.625 10.3496 25.625Z" fill="#00B964"/>
<path d="M28.7125 0.00240789C12.9731 -0.195455 0.252943 11.8247 0.0054687 27.258C-0.2915 43.5817 11.5378 55.7997 27.8216 55.9976C43.5609 56.1954 55.8357 44.3731 56.2811 28.5441C56.6771 13.2592 44.1549 0.200271 28.7125 0.00240789ZM14.9034 32.254C14.1115 32.254 13.3196 32.254 12.5277 32.254C12.5277 32.0067 12.5277 31.7099 12.5277 31.3636C11.9337 31.9572 11.3398 32.3035 10.5974 32.4519C8.66707 32.7487 6.88525 31.7594 6.09334 29.9786C5.40041 28.3957 5.4994 26.8128 6.3903 25.3288C7.57818 23.3502 10.5479 22.6082 12.4287 24.389C12.4287 23.647 12.4287 23.0039 12.4287 22.3114C12.4287 21.6189 12.4287 20.9264 12.4287 20.2339C13.2701 20.2339 14.062 20.2339 14.9034 20.2339C14.9034 24.2406 14.9034 28.2473 14.9034 32.254ZM21.1893 32.5014C18.5165 32.5014 16.5367 30.5227 16.5367 27.9011C16.5367 25.2299 18.5165 23.3007 21.1893 23.3007C23.9115 23.3007 25.8913 25.2794 25.8913 27.9505C25.8913 30.5722 23.862 32.5508 21.1893 32.5014ZM34.6519 31.8583C33.3155 32.6992 31.1872 32.8971 29.9004 31.512C29.9004 31.512 29.8509 31.4626 29.7519 31.4626C29.7519 31.7594 29.7519 32.0562 29.7519 32.3035C28.96 32.3035 28.168 32.3035 27.3761 32.3035C27.3761 28.2968 27.3761 24.2901 27.3761 20.2339C28.168 20.2339 28.96 20.2339 29.8014 20.2339C29.8014 21.5694 29.8014 22.9545 29.8014 24.3395C29.9004 24.3395 29.9499 24.3395 29.9499 24.3395C31.4347 22.8061 34.4539 23.1523 35.8892 25.2794C37.2751 27.3569 36.7306 30.5227 34.6519 31.8583ZM43.7094 25.873C43.5114 25.8235 43.363 25.774 43.165 25.774C41.7296 25.5267 40.7397 26.2192 40.6407 27.7032C40.5912 28.7914 40.5912 29.8797 40.5912 30.9679C40.5912 31.4131 40.5912 31.8088 40.5912 32.254C39.7498 32.254 38.9579 32.254 38.166 32.254C38.166 29.385 38.166 26.4665 38.166 23.5975C38.9579 23.5975 39.7003 23.5975 40.4923 23.5975C40.4923 23.9438 40.4923 24.2406 40.4923 24.6363C40.6407 24.4879 40.6902 24.389 40.7892 24.3395C41.5811 23.3997 42.5215 23.1523 43.6599 23.4491C43.8579 23.4986 43.9569 23.5481 43.9569 23.7954C43.8084 24.4879 43.7589 25.1804 43.7094 25.873ZM48.8569 32.5014C46.1842 32.5014 44.2044 30.5227 44.2044 27.9011C44.2044 25.2299 46.1842 23.3007 48.8569 23.3007C51.5791 23.3007 53.5589 25.2794 53.5589 27.9505C53.6084 30.5722 51.5791 32.5508 48.8569 32.5014Z" fill="#00B964"/>
<path d="M101.718 16.7721C101.669 17.4646 101.669 18.0582 101.619 18.8002C101.669 18.8496 101.174 18.5034 100.877 18.3055C97.3628 15.6344 91.8193 15.7828 88.6022 18.355C83.9992 22.0154 83.1082 29.5342 86.6719 34.5797C89.1466 38.0918 93.3042 39.4768 97.4618 38.5864C98.9466 38.2896 100.283 37.3993 101.619 36.7562C101.669 37.2509 101.669 37.6466 101.718 38.2896C103.649 38.2896 104.985 38.2896 106.915 38.2896C106.915 31.0677 106.915 23.9446 106.915 16.7721C105.034 16.7721 103.649 16.7721 101.718 16.7721ZM95.6304 33.442C92.5123 33.3925 90.1365 30.7709 90.186 27.4567C90.2355 24.2414 92.7103 21.8176 95.8284 21.867C99.0456 21.9165 101.421 24.4887 101.372 27.7535C101.322 31.0182 98.8476 33.4915 95.6304 33.442ZM82.0689 16.871V29.089C81.9699 36.2121 76.9214 39.279 70.784 38.8338C63.4588 38.2896 62.0729 32.057 62.0729 30.8698L62.0234 16.871H67.7153C67.7153 16.871 67.6659 25.5275 67.7153 29.2869C67.7648 32.3043 70.3881 34.0851 73.2588 33.2441C74.8921 32.7495 76.2285 31.2161 76.2285 29.1385V16.871C78.3567 16.871 82.0689 16.871 82.0689 16.871Z" fill="#00B964"/>
</svg>
