<?xml version="1.0" encoding="UTF-8"?> <svg xmlns="http://www.w3.org/2000/svg" width="207" height="70" viewBox="0 0 207 70" fill="none"><path d="M95.9041 13.4419L95.8959 0H91.2705L91.2827 13.2929L86.075 13.2969L86.0669 0.00402936L81.4414 0.0120881L81.4536 17.0402L93.8112 17.0321L94.0474 21.4281L97.5206 21.4241L97.716 13.5628L95.9041 13.4419Z" fill="#2B2B2E"></path><path d="M111.416 13.3759L104.754 13.3799L104.75 10.2255L110.702 10.2214L110.698 6.5075L104.742 6.51156V3.76665L111.067 3.76259L111.063 0L100.285 0.00810904L100.301 17.1425L111.42 17.1344L111.416 13.3759Z" fill="#2B2B2E"></path><path d="M128.536 0H123.743L123.747 6.35598L117.944 6.36409L117.936 0.00810712L113.135 0.0121607L113.152 17.1425L117.949 17.1385L117.944 10.3771L123.747 10.3731L123.752 17.1385L128.553 17.1344L128.536 0Z" fill="#2B2B2E"></path><path d="M143.969 0L131.121 0.00810712L131.129 3.87115H135.311L135.322 17.1425L139.722 17.1344L139.714 3.8671L143.969 3.86304V0Z" fill="#2B2B2E"></path><path d="M153.303 7.27318C152.702 7.72794 151.962 7.95566 151.211 7.9164C150.865 7.91734 150.519 7.8999 150.175 7.86414V3.53048C150.618 3.4505 151.069 3.41682 151.519 3.42998C152.201 3.38103 152.877 3.58244 153.423 3.99681C153.864 4.38586 154.104 4.95572 154.075 5.54455C154.104 6.20833 153.822 6.84758 153.315 7.27318H153.303ZM156.635 1.35963C155.451 0.453772 153.656 0.000842243 151.251 0.000842243C149.388 -0.0120174 147.526 0.1224 145.684 0.402851V17.1425H150.175V11.3496C150.259 11.3496 150.423 11.3496 150.663 11.3697C150.903 11.3898 151.111 11.3938 151.275 11.3938C153.702 11.3938 155.568 10.8042 156.875 9.62494C157.978 8.61589 158.526 7.21288 158.526 5.44002C158.603 3.84051 157.878 2.30863 156.595 1.35963" fill="#2B2B2E"></path><path d="M91.4651 37.2516C89.9981 37.2516 88.8532 36.7956 88.0304 35.8837C87.2075 34.9719 86.7961 33.7184 86.7961 32.1232C86.7961 30.4482 87.2289 29.1741 88.0945 28.3008C88.9875 27.4194 90.1578 26.9513 91.3594 26.9949C92.3748 26.9805 93.3824 27.1899 94.3224 27.6106L95.1452 23.8915C94.2268 23.3901 92.9007 23.1407 91.1669 23.1435C89.6455 23.1196 88.1382 23.4669 86.7546 24.1601C85.4256 24.8506 84.3084 25.9488 83.5387 27.3214C82.6813 28.8681 82.2513 30.6536 82.3007 32.4621C82.2964 33.5889 82.4727 34.7079 82.8216 35.768C83.164 36.7849 83.6831 37.7196 84.3502 38.5202C85.0934 39.3851 86.0149 40.0425 87.0377 40.4377C88.275 40.9271 89.5835 41.1651 90.8989 41.1402C92.7107 41.1402 94.0443 40.8978 94.8999 40.4129L94.3035 36.7598C93.3934 37.1148 92.4309 37.2816 91.4651 37.2516Z" fill="#2B2B2E"></path><path d="M111.408 23.9995L97.7148 24.0076L97.7225 41.142H102.075L102.067 27.7653H107.063L107.071 41.1339L111.42 41.1299L111.408 23.9995Z" fill="#2B2B2E"></path><path d="M119.119 23.9995L114.848 24.0036L114.855 41.142L119.13 41.138L119.119 23.9995Z" fill="#2B2B2E"></path><path d="M136.261 23.9995H123.408V31.4936C123.408 34.0435 122.98 35.742 122.125 36.5893C121.553 37.1251 120.795 37.4541 119.986 37.5176L120.577 41.1392C121.957 41.1743 123.324 40.8823 124.55 40.2906C125.886 39.6043 126.885 38.4616 127.334 37.1033C127.853 35.653 128.111 33.6968 128.109 31.2347V27.7127H131.381V40.8603H136.239L136.261 23.9995Z" fill="#2B2B2E"></path><path d="M146.338 37.1389C145.762 37.568 145.065 37.7839 144.358 37.7523C143.947 37.755 143.537 37.7323 143.129 37.6842V33.1293C143.561 33.0724 143.996 33.0389 144.431 33.029C145.123 32.9938 145.805 33.2028 146.368 33.6225C146.87 34.0452 147.143 34.6954 147.102 35.3666C147.139 36.054 146.852 36.7168 146.334 37.1429L146.338 37.1389ZM149.819 31.0042C148.582 30.0419 147.015 29.5608 145.119 29.5608C144.458 29.5664 143.798 29.6187 143.144 29.7171V23.9995H138.832V40.8397C140.243 41.0684 141.67 41.1677 143.098 41.1364C146.508 41.1364 148.926 40.3879 150.353 38.891C151.258 37.8785 151.734 36.5289 151.676 35.1461C151.676 33.3338 151.055 31.9465 149.815 30.9842" fill="#2B2B2E"></path><path d="M170.507 23.9995H165.708L165.717 30.3555L159.908 30.3636L159.904 24.0076L155.105 24.0117L155.122 41.142H159.921L159.916 34.3766H165.721L165.725 41.138L170.523 41.1339L170.507 23.9995Z" fill="#2B2B2E"></path><path d="M187.646 23.9995H182.72L179.661 29.8162C178.422 32.1316 177.37 34.2297 176.504 36.1106H176.424C176.565 33.6819 176.635 31.0333 176.632 28.1647V24.0278H172.236V41.142H177.752L180.539 35.9891C181.672 33.9779 182.649 31.8904 183.463 29.7434H183.543C183.301 32.173 183.197 34.6133 183.229 37.0537V41.1096H187.654L187.646 23.9995Z" fill="#2B2B2E"></path><path d="M199.521 32.3681L204.433 23.9995H198.9L197.803 26.7431C197.414 27.7279 197.05 28.6681 196.733 29.5799H196.677C196.249 28.4979 195.82 27.5536 195.465 26.7431L194.232 24.0279H188.664L193.593 32.4735L188.51 41.142H194.013L195.217 38.3052C195.988 36.3883 196.386 35.4076 196.399 35.3549H196.454C197.097 36.7598 197.562 37.7513 197.851 38.3295L199.17 41.1218H204.784L199.521 32.3681Z" fill="#2B2B2E"></path><path d="M86.6183 61.3498C87.0713 60.471 87.4305 59.5459 87.6898 58.5902C88.1506 56.9563 88.3852 55.2656 88.3868 53.5665V51.7174H91.406V61.3417L86.6183 61.3498ZM95.9387 61.4425V47.999H84.2245V52.644C84.2431 54.3311 84.0422 56.0134 83.627 57.6475C83.2611 58.972 82.7339 60.2454 82.0577 61.4384L80.584 61.5674L80.7393 69.4272H84.1369L84.3559 65.0319H93.8954L94.1264 69.4231H97.5239L97.7151 61.5674L95.9387 61.4425Z" fill="#2B2B2E"></path><path d="M104.557 47.999L100.285 48.0031L100.293 65.1415L104.568 65.1375L104.557 47.999Z" fill="#2B2B2E"></path><path d="M122.542 46.7958H117.616L114.566 52.4419C113.321 54.6961 112.266 56.7353 111.401 58.5597H111.324C111.46 56.2006 111.529 53.6279 111.532 50.8416V46.8037H107.137V63.4272H112.652L115.444 58.4221C116.575 56.4684 117.551 54.4408 118.363 52.3553H118.444C118.206 54.7156 118.101 57.0858 118.13 59.4561V63.4154H122.555L122.542 46.7958ZM115.915 42.8641C115.81 43.868 115.447 44.3699 114.825 44.3699C114.167 44.3699 113.84 43.8706 113.836 42.8641H110.671C110.906 45.0187 112.273 46.0934 114.774 46.0881C117.449 46.0881 118.876 45.0108 119.055 42.8562L115.915 42.8641Z" fill="#2B2B2E"></path><path d="M18.9165 0V18.8568H12.6351V6.28693H6.35368V18.8568H0.0722656V0H18.9165Z" fill="#C90D1F"></path><path d="M44.6099 0V6.28693H32.0444V18.8568H25.7656V0H44.6099Z" fill="#C90D1F"></path><path d="M69.4497 0V18.8568H63.171V6.28693H50.6055V0H69.4497Z" fill="#C90D1F"></path><path d="M38.6133 12.8569H44.6092V18.8568H38.6133V12.8569Z" fill="#C90D1F"></path><path d="M50.6055 12.8569H56.6014V18.8568H50.6055V12.8569Z" fill="#C90D1F"></path><path d="M0.0683594 24.8566H6.06426V43.7133H0.0683594V24.8566Z" fill="#C90D1F"></path><path d="M12.916 24.8566H18.9119V43.7133H12.916V24.8566Z" fill="#C90D1F"></path><path d="M38.6133 24.8566H44.6092V30.8564H38.6133V24.8566Z" fill="#C90D1F"></path><path d="M50.6055 24.8566H56.6014V30.8564H50.6055V24.8566Z" fill="#C90D1F"></path><path d="M62.5977 24.8566H68.5936V43.7133H62.5977V24.8566Z" fill="#C90D1F"></path><path d="M24.9082 24.8566H30.9041V43.7133H24.9082V24.8566Z" fill="#C90D1F"></path><path d="M38.6133 38.5707H44.6092V44.5705H38.6133V38.5707Z" fill="#C90D1F"></path><path d="M50.6055 38.5707H56.6014V44.5705H50.6055V38.5707Z" fill="#C90D1F"></path><path d="M18.9126 63.1443V69.4272H0.0683594V50.5704H6.34978V63.1443H18.9126Z" fill="#C90D1F"></path><path d="M12.916 50.5704H18.9119V56.5703H12.916V50.5704Z" fill="#C90D1F"></path><path d="M24.9082 50.5704H30.9041V56.5703H24.9082V50.5704Z" fill="#C90D1F"></path><path d="M44.6099 50.5704V69.4272H25.7656V63.1443H38.3271V50.5704H44.6099Z" fill="#C90D1F"></path><path d="M69.4497 50.5704V69.4272H50.6055V50.5704H56.8882V63.1443H63.171V50.5704H69.4497Z" fill="#C90D1F"></path></svg> 