<svg xmlns="http://www.w3.org/2000/svg" viewBox="0 0 192.15 49.5">
    <path d="M22.21,32.35h5.07l6.19,10.73h-2.66v3.21h-4.46v-3.21h-3.21v3.21h-4.46v-3.21h-2.66l6.19-10.73Zm10.13-5.06v-5.07l10.73-6.19v2.66h3.21v4.46h-3.21v3.21h3.21v4.46h-3.21v2.66l-10.73-6.19Zm-3.21,1.85h0Zm0,0h0Zm-1.85-11.98h-5.07l-6.19-10.73h2.66V3.21h4.46v3.21h3.21V3.21h4.46v3.21h2.66l-6.19,10.73Zm-10.13,5.06v5.07l-10.73,6.19v-2.66H3.21v-4.46h3.21v-3.21H3.21v-4.46h3.21v-2.66l10.73,6.19Zm3.22-1.85h8.75v8.76h-8.76v-8.76h0Zm0,0h0Zm0,8.76h0l-9.9,17.16h5.01v3.21h18.56v-3.21h5.01l-9.9-17.15,17.15,9.9v-5.01h3.21V15.47h-3.21v-5.01l-17.15,9.9h0L39.03,3.21h-5.01V0H15.47V3.21h-5.01l9.9,17.15L3.21,10.46v5.01H0v18.56H3.21v5.01l17.15-9.9Z" fill="#fdc300" fill-rule="evenodd"/>
    <path d="M179.42,23.7h4.51v10.34h3.71v-10.34h4.51v-3.18h-12.73v3.18Zm-12.06,3.58c0-2.55,1.43-3.98,3.31-3.98,2.01,0,3.45,1.43,3.45,3.98s-1.43,3.98-3.45,3.98c-1.88,0-3.31-1.43-3.31-3.98Zm-3.85,0c0,4.38,2.78,7.16,6.23,7.16,1.49,0,2.49-.53,3.21-1.06,.4-.32,.74-.66,1.03-1.06h.13v1.72h3.71v-13.52h-3.71v1.72h-.13c-.29-.4-.64-.74-1.03-1.06-.72-.53-1.72-1.06-3.21-1.06-3.45,0-6.23,2.78-6.23,7.16Zm-28.11,0c0-2.39,1.59-3.98,3.58-3.98s3.58,1.59,3.58,3.98-1.59,3.98-3.58,3.98-3.58-1.59-3.58-3.98Zm-3.84,0c0,3.98,3.15,7.16,7.42,7.16s7.42-3.18,7.42-7.16-3.21-7.16-7.42-7.16-7.42,3.18-7.42,7.16Zm-12.07,0c0-2.55,1.43-3.98,3.45-3.98,1.88,0,3.32,1.43,3.32,3.98s-1.43,3.98-3.32,3.98c-2.02,0-3.45-1.43-3.45-3.98Zm-3.71,11.8h3.71v-6.76h.13c.29,.4,.64,.74,1.04,1.06,.71,.53,1.72,1.06,3.21,1.06,3.45,0,6.23-2.78,6.23-7.16s-2.78-7.16-6.23-7.16c-1.49,0-2.49,.53-3.21,1.06-.4,.32-.74,.66-1.04,1.06h-.13v-1.72h-3.71v18.56Zm-28.77-11.8c0-2.39,1.59-3.98,3.58-3.98s3.58,1.59,3.58,3.98-1.59,3.98-3.58,3.98-3.58-1.59-3.58-3.98Zm-3.85,0c0,3.98,3.16,7.16,7.43,7.16s7.42-3.18,7.42-7.16-3.21-7.16-7.42-7.16-7.43,3.18-7.43,7.16Zm-15.11,3.05l2.92-11.14h2.52l2.92,11.14h-8.35Zm35.4-2.52c0-2.02,1.3-3.31,3.18-3.31s3.18,1.3,3.18,3.31c0,2.12-1.3,3.45-3.18,3.45s-3.18-1.33-3.18-3.45Zm-3.84-1.46c0,5.01,3.08,8.09,7.03,8.09,4.24,0,7.03-2.92,7.03-6.63s-2.63-6.23-6.1-6.23c-1.48,0-2.49,.48-3.16,.93-.4,.29-.72,.58-.95,.93h-.13v-4.77h9.15v-3.18h-12.86v10.87Zm52.24,1.46c0-2.02,1.3-3.31,3.18-3.31s3.18,1.3,3.18,3.31c0,2.12-1.3,3.45-3.18,3.45s-3.18-1.33-3.18-3.45Zm-3.84-1.46c0,5.01,3.07,8.09,7.03,8.09,4.24,0,7.03-2.92,7.03-6.63s-2.63-6.23-6.1-6.23c-1.48,0-2.49,.48-3.16,.93-.4,.29-.71,.58-.95,.93h-.13v-4.77h9.15v-3.18h-12.86v10.87Zm-85.91,11h3.84v-3.31h12.6v3.31h3.85v-7.03h-2.12l-3.84-14.85h-8.35l-3.84,14.85h-2.12v7.03Z" fill="#1d1d1b"/>
</svg>