<?xml version="1.0" encoding="utf-8"?>
<svg version="1.0" xmlns="http://www.w3.org/2000/svg" width="300.000000pt" height="268.000000pt" viewBox="0 0 300.000000 268.000000" preserveAspectRatio="xMidYMid meet">
  <g transform="matrix(0.119217, 0, 0, -0.119217, -22.132218, 296.218571)" fill="#000000" stroke="none" style="">
    <path d="M 443 2465 C 393 2443 370 2397 370 2318 L 360.804 2253.78 C 330.804 2253.78 263 2243 243 2230 C 177 2190 180 2232 180 1367 L 180 583 L 203 549 C 236 501 263 490 363 490 C 443 490 450 488 450 470 C 450 431 493 360 541 316 C 653 215 813 214 926 313 C 971 353 1020 435 1020 473 C 1020 489 1045 490 1437 488 L 1854 485 L 1860 455 C 1876 381 1934 309 2012 271 C 2170 191 2361 270 2415 438 L 2432 490 L 2517 490 C 2586 490 2609 494 2636 510 C 2703 552 2701 528 2698 1385 C 2695 2108 2694 2158 2677 2183 C 2651 2224 2601 2250 2553 2250 L 2510 2250 L 2510 2324 C 2510 2408 2492 2442 2434 2466 C 2385 2487 1834 2486 1785 2466 C 1733 2444 1710 2398 1710 2318 L 1710 2250 L 1441 2250 L 1172 2250 L 1169 2329 C 1165 2417 1151 2442 1093 2466 C 1046 2486 489 2485 443 2465 Z M 1084 2374 C 1087 2365 1090 2334 1090 2304 L 1090 2250 L 886 2250 C 667 2250 655 2247 662 2198 L 665 2175 L 1310 2172 C 1907 2170 1956 2171 1968 2187 C 1984 2209 1983 2215 1964 2234 C 1953 2246 1928 2250 1869 2250 L 1790 2250 L 1790 2308 C 1790 2340 1795 2371 1802 2378 C 1811 2387 1894 2390 2116 2390 C 2457 2390 2430 2397 2430 2304 L 2430 2250 L 2276 2250 C 2111 2250 2095 2245 2102 2198 L 2105 2175 L 2345 2170 C 2477 2167 2591 2161 2598 2157 C 2607 2151 2610 2009 2610 1504 L 2610 860 L 2130 860 L 1650 860 L 1650 1458 C 1650 1910 1647 2059 1638 2068 C 1621 2085 379 2085 362 2068 C 353 2059 350 1910 350 1458 L 350 860 L 305 860 L 260 860 L 260 1499 C 260 2080 261 2139 276 2151 C 288 2161 334 2167 424 2170 C 551 2175 555 2176 558 2198 C 563 2233 543 2250 494 2250 L 450 2250 L 450 2308 C 450 2340 455 2371 462 2378 C 471 2387 554 2390 776 2390 C 1042 2390 1079 2388 1084 2374 Z M 1570 1430 L 1570 860 L 1179 858 C 818 855 786 854 776 838 C 768 825 768 815 776 803 C 787 786 843 785 1699 782 L 2610 780 L 2610 687 C 2610 628 2606 590 2598 582 C 2589 573 2318 570 1439 570 C 409 570 290 572 276 586 C 264 598 260 623 260 691 L 260 780 L 456 782 C 631 785 654 787 664 802 C 672 815 672 825 664 837 C 655 852 635 855 541 858 L 430 861 L 430 1430 L 430 2000 L 1000 2000 L 1570 2000 L 1570 1430 Z M 940 485 C 940 466 908 411 884 386 C 805 307 693 300 602 368 C 571 391 530 455 530 480 C 530 486 600 490 735 490 C 848 490 940 488 940 485 Z M 2350 485 C 2350 466 2306 398 2276 372 C 2193 299 2075 304 1996 384 C 1972 407 1948 441 1942 458 L 1931 490 L 2141 490 C 2256 490 2350 488 2350 485 Z"/>
    <path d="M 2113 1962 C 2106 1957 2053 1840 1995 1701 C 1872 1404 1872 1410 1981 1410 C 2043 1410 2051 1408 2046 1393 C 2043 1383 2033 1337 2025 1290 C 2016 1243 2005 1183 1999 1155 C 1994 1128 1987 1095 1984 1083 C 1978 1051 2014 1016 2039 1030 C 2067 1044 2182 1246 2178 1273 C 2176 1291 2168 1295 2143 1295 C 2105 1295 2106 1293 2125 1380 C 2143 1461 2143 1456 2124 1474 C 2114 1485 2090 1490 2053 1490 C 2023 1490 2000 1494 2002 1498 C 2004 1503 2025 1558 2050 1621 L 2095 1735 L 2100 1642 C 2106 1534 2109 1530 2193 1530 C 2224 1530 2250 1527 2250 1523 C 2250 1518 2241 1504 2230 1490 C 2197 1448 2210 1410 2256 1410 C 2273 1410 2289 1428 2324 1488 C 2349 1531 2370 1571 2370 1577 C 2370 1604 2337 1614 2260 1611 L 2182 1609 L 2178 1773 C 2176 1891 2171 1942 2161 1954 C 2146 1972 2132 1974 2113 1962 Z"/>
    <path d="M579 1895 c-52 -28 -59 -52 -59 -199 0 -130 1 -136 26 -165 14 -17 42 -35 62 -41 54 -15 747 -12 792 3 19 7 44 27 57 46 21 31 23 45 23 158 0 139 -10 172 -60 198 -42 22 -801 22 -841 0z m809 -77 c16 -16 16 -220 0 -236 -17 -17 -759 -17 -776 0 -16 16 -16 220 0 236 17 17 759 17 776 0z"/>
    <path d="M1148 1369 c-16 -9 -18 -28 -18 -169 0 -147 1 -160 19 -170 26 -13 286 -13 312 0 18 10 19 23 19 170 0 147 -1 160 -19 170 -25 13 -290 13 -313 -1z m252 -166 l0 -92 -95 -3 -95 -3 0 95 0 95 95 0 95 0 0 -92z"/>
  </g>
</svg>